<?xml version="1.0" encoding="UTF-8" standalone="no"?>
<!DOCTYPE svg PUBLIC "-//W3C//DTD SVG 1.1//EN" "http://www.w3.org/Graphics/SVG/1.1/DTD/svg11.dtd">
<svg width="100%" height="100%" viewBox="0 0 2000 500" version="1.1" xmlns="http://www.w3.org/2000/svg" xmlns:xlink="http://www.w3.org/1999/xlink" xml:space="preserve" xmlns:serif="http://www.serif.com/" style="fill-rule:evenodd;clip-rule:evenodd;stroke-linejoin:round;stroke-miterlimit:2;">
    <g transform="matrix(1.112303,-0,-0,1.105382,-60.12116,-72.010051)">
        <g transform="matrix(361.021009,0,0,361.021009,36,353)">
            <path d="M0.458,-0.709L0.05,-0.709L0.05,-0L0.179,-0L0.179,-0.161L0.458,-0.161C0.534,-0.161 0.604,-0.189 0.655,-0.239C0.706,-0.29 0.733,-0.359 0.733,-0.435C0.733,-0.511 0.706,-0.581 0.655,-0.631C0.604,-0.681 0.534,-0.709 0.458,-0.709ZM0.458,-0.29L0.179,-0.29L0.179,-0.58L0.458,-0.58C0.544,-0.58 0.604,-0.52 0.604,-0.435C0.604,-0.35 0.544,-0.29 0.458,-0.29Z" style="fill:white;fill-rule:nonzero;"/>
        </g>
        <g transform="matrix(361.021009,0,0,361.021009,306.765757,353)">
            <path d="M0.519,-0.329C0.515,-0.344 0.509,-0.358 0.502,-0.372C0.495,-0.386 0.486,-0.399 0.476,-0.411C0.467,-0.424 0.455,-0.435 0.443,-0.445C0.431,-0.456 0.418,-0.465 0.404,-0.472C0.376,-0.487 0.346,-0.497 0.316,-0.501C0.301,-0.503 0.286,-0.503 0.271,-0.503C0.256,-0.502 0.24,-0.501 0.225,-0.498C0.195,-0.492 0.166,-0.48 0.139,-0.463C0.113,-0.447 0.089,-0.424 0.071,-0.399C0.053,-0.373 0.04,-0.344 0.032,-0.315C0.029,-0.3 0.026,-0.285 0.024,-0.271C0.024,-0.263 0.023,-0.256 0.023,-0.248C0.023,-0.241 0.023,-0.233 0.023,-0.226C0.024,-0.211 0.026,-0.196 0.029,-0.181C0.032,-0.166 0.037,-0.151 0.043,-0.137C0.054,-0.108 0.071,-0.081 0.093,-0.058C0.115,-0.036 0.141,-0.017 0.169,-0.004C0.197,0.009 0.227,0.017 0.257,0.02C0.264,0.021 0.272,0.021 0.279,0.022C0.283,0.022 0.294,0.022 0.296,0.022L0.301,0.021C0.309,0.021 0.316,0.02 0.324,0.019C0.328,0.019 0.331,0.018 0.335,0.018C0.339,0.017 0.343,0.017 0.346,0.016C0.376,0.01 0.405,-0.002 0.432,-0.018C0.459,-0.034 0.483,-0.056 0.501,-0.082L0.406,-0.152C0.396,-0.138 0.384,-0.127 0.37,-0.118C0.356,-0.109 0.34,-0.103 0.322,-0.099C0.32,-0.099 0.311,-0.097 0.309,-0.097C0.305,-0.097 0.3,-0.096 0.296,-0.096C0.296,-0.096 0.284,-0.096 0.282,-0.096C0.278,-0.096 0.273,-0.096 0.269,-0.097C0.251,-0.098 0.234,-0.103 0.218,-0.11C0.203,-0.117 0.189,-0.127 0.178,-0.139C0.166,-0.151 0.157,-0.165 0.15,-0.181C0.149,-0.185 0.147,-0.189 0.146,-0.193L0.534,-0.193L0.534,-0.241C0.533,-0.27 0.529,-0.3 0.519,-0.329ZM0.154,-0.312C0.157,-0.319 0.161,-0.325 0.166,-0.332C0.175,-0.345 0.187,-0.357 0.201,-0.366C0.215,-0.375 0.231,-0.381 0.248,-0.385C0.257,-0.386 0.266,-0.387 0.275,-0.388C0.284,-0.388 0.293,-0.388 0.301,-0.387C0.319,-0.385 0.335,-0.38 0.349,-0.372C0.364,-0.364 0.376,-0.353 0.386,-0.341C0.393,-0.332 0.399,-0.322 0.403,-0.312L0.154,-0.312Z" style="fill:white;fill-rule:nonzero;"/>
        </g>
        <g transform="matrix(361.021009,0,0,361.021009,507.493438,353)">
            <path d="M0.519,-0.329C0.515,-0.344 0.509,-0.358 0.502,-0.372C0.495,-0.386 0.486,-0.399 0.476,-0.411C0.467,-0.424 0.455,-0.435 0.443,-0.445C0.431,-0.456 0.418,-0.465 0.404,-0.472C0.376,-0.487 0.346,-0.497 0.316,-0.501C0.301,-0.503 0.286,-0.503 0.271,-0.503C0.256,-0.502 0.24,-0.501 0.225,-0.498C0.195,-0.492 0.166,-0.48 0.139,-0.463C0.113,-0.447 0.089,-0.424 0.071,-0.399C0.053,-0.373 0.04,-0.344 0.032,-0.315C0.029,-0.3 0.026,-0.285 0.024,-0.271C0.024,-0.263 0.023,-0.256 0.023,-0.248C0.023,-0.241 0.023,-0.233 0.023,-0.226C0.024,-0.211 0.026,-0.196 0.029,-0.181C0.032,-0.166 0.037,-0.151 0.043,-0.137C0.054,-0.108 0.071,-0.081 0.093,-0.058C0.115,-0.036 0.141,-0.017 0.169,-0.004C0.197,0.009 0.227,0.017 0.257,0.02C0.264,0.021 0.272,0.021 0.279,0.022C0.283,0.022 0.294,0.022 0.296,0.022L0.301,0.021C0.309,0.021 0.316,0.02 0.324,0.019C0.328,0.019 0.331,0.018 0.335,0.018C0.339,0.017 0.343,0.017 0.346,0.016C0.376,0.01 0.405,-0.002 0.432,-0.018C0.459,-0.034 0.483,-0.056 0.501,-0.082L0.406,-0.152C0.396,-0.138 0.384,-0.127 0.37,-0.118C0.356,-0.109 0.34,-0.103 0.322,-0.099C0.32,-0.099 0.311,-0.097 0.309,-0.097C0.305,-0.097 0.3,-0.096 0.296,-0.096C0.296,-0.096 0.284,-0.096 0.282,-0.096C0.278,-0.096 0.273,-0.096 0.269,-0.097C0.251,-0.098 0.234,-0.103 0.218,-0.11C0.203,-0.117 0.189,-0.127 0.178,-0.139C0.166,-0.151 0.157,-0.165 0.15,-0.181C0.149,-0.185 0.147,-0.189 0.146,-0.193L0.534,-0.193L0.534,-0.241C0.533,-0.27 0.529,-0.3 0.519,-0.329ZM0.154,-0.312C0.157,-0.319 0.161,-0.325 0.166,-0.332C0.175,-0.345 0.187,-0.357 0.201,-0.366C0.215,-0.375 0.231,-0.381 0.248,-0.385C0.257,-0.386 0.266,-0.387 0.275,-0.388C0.284,-0.388 0.293,-0.388 0.301,-0.387C0.319,-0.385 0.335,-0.38 0.349,-0.372C0.364,-0.364 0.376,-0.353 0.386,-0.341C0.393,-0.332 0.399,-0.322 0.403,-0.312L0.154,-0.312Z" style="fill:white;fill-rule:nonzero;"/>
        </g>
        <g transform="matrix(361.021009,0,0,361.021009,708.22112,353)">
            <path d="M0.555,-0.342C0.543,-0.374 0.523,-0.405 0.498,-0.429C0.485,-0.442 0.471,-0.453 0.457,-0.462C0.442,-0.472 0.426,-0.48 0.41,-0.486C0.376,-0.499 0.346,-0.504 0.316,-0.504C0.255,-0.504 0.202,-0.485 0.162,-0.45L0.162,-0.482L0.044,-0.482L0.044,0.17L0.162,0.17L0.162,-0.02C0.163,-0.02 0.163,-0.02 0.163,-0.02C0.177,-0.01 0.193,-0.003 0.21,0.003C0.242,0.016 0.276,0.021 0.31,0.021C0.343,0.021 0.377,0.015 0.41,0.003C0.426,-0.003 0.442,-0.011 0.457,-0.02C0.471,-0.03 0.485,-0.041 0.498,-0.053C0.523,-0.078 0.543,-0.108 0.555,-0.141C0.568,-0.173 0.573,-0.208 0.573,-0.241C0.573,-0.275 0.568,-0.309 0.555,-0.342ZM0.449,-0.182C0.441,-0.164 0.431,-0.148 0.417,-0.135C0.404,-0.121 0.388,-0.111 0.369,-0.104C0.351,-0.097 0.331,-0.094 0.31,-0.094C0.299,-0.094 0.289,-0.095 0.279,-0.096C0.269,-0.098 0.26,-0.101 0.25,-0.104C0.232,-0.112 0.216,-0.122 0.203,-0.135C0.19,-0.149 0.179,-0.165 0.173,-0.183C0.166,-0.201 0.162,-0.221 0.162,-0.241C0.162,-0.262 0.166,-0.282 0.173,-0.3C0.18,-0.317 0.19,-0.334 0.203,-0.347C0.216,-0.36 0.232,-0.371 0.251,-0.378C0.269,-0.385 0.289,-0.388 0.31,-0.389C0.331,-0.389 0.351,-0.385 0.369,-0.378C0.387,-0.371 0.404,-0.361 0.417,-0.348C0.431,-0.335 0.441,-0.318 0.448,-0.3C0.456,-0.282 0.459,-0.262 0.459,-0.241C0.459,-0.22 0.456,-0.2 0.449,-0.182Z" style="fill:white;fill-rule:nonzero;"/>
        </g>
        <g transform="matrix(361.021009,0,0,361.021009,923.750662,353)">
            <path d="M0.534,-0.342C0.522,-0.374 0.502,-0.405 0.477,-0.429C0.464,-0.442 0.45,-0.453 0.436,-0.462C0.421,-0.472 0.405,-0.48 0.389,-0.486C0.356,-0.498 0.322,-0.504 0.289,-0.504C0.255,-0.504 0.221,-0.498 0.189,-0.486C0.172,-0.48 0.156,-0.472 0.141,-0.463C0.126,-0.454 0.112,-0.443 0.1,-0.43C0.074,-0.405 0.054,-0.375 0.042,-0.342C0.029,-0.31 0.023,-0.275 0.023,-0.241C0.023,-0.224 0.024,-0.207 0.028,-0.19C0.031,-0.173 0.035,-0.157 0.042,-0.14C0.055,-0.108 0.074,-0.077 0.1,-0.052C0.113,-0.04 0.127,-0.029 0.142,-0.02C0.157,-0.01 0.172,-0.003 0.189,0.003C0.221,0.016 0.255,0.021 0.289,0.021C0.322,0.021 0.356,0.015 0.389,0.003C0.405,-0.003 0.421,-0.011 0.436,-0.02C0.45,-0.03 0.464,-0.041 0.477,-0.053C0.502,-0.078 0.521,-0.108 0.534,-0.141C0.547,-0.173 0.552,-0.208 0.552,-0.241C0.552,-0.275 0.547,-0.309 0.534,-0.342ZM0.428,-0.182C0.42,-0.164 0.41,-0.148 0.396,-0.135C0.383,-0.121 0.367,-0.111 0.348,-0.104C0.33,-0.097 0.31,-0.094 0.289,-0.094C0.278,-0.094 0.268,-0.095 0.258,-0.096C0.248,-0.098 0.239,-0.101 0.229,-0.104C0.211,-0.111 0.195,-0.122 0.182,-0.135C0.169,-0.149 0.158,-0.165 0.152,-0.183C0.145,-0.201 0.141,-0.221 0.141,-0.241C0.141,-0.262 0.145,-0.282 0.152,-0.299C0.159,-0.317 0.169,-0.334 0.182,-0.347C0.195,-0.36 0.211,-0.371 0.23,-0.378C0.248,-0.385 0.268,-0.388 0.289,-0.389C0.31,-0.389 0.33,-0.385 0.348,-0.378C0.366,-0.371 0.383,-0.361 0.396,-0.348C0.41,-0.335 0.42,-0.318 0.427,-0.3C0.435,-0.282 0.438,-0.262 0.438,-0.241C0.438,-0.22 0.435,-0.2 0.428,-0.182Z" style="fill:white;fill-rule:nonzero;"/>
        </g>
        <g transform="matrix(361.021009,0,0,361.021009,1131.698764,353)">
            <path d="M0.374,-0.121C0.362,-0.113 0.348,-0.106 0.333,-0.102C0.318,-0.097 0.302,-0.095 0.285,-0.095C0.269,-0.095 0.253,-0.098 0.238,-0.102C0.208,-0.111 0.182,-0.129 0.165,-0.153C0.156,-0.165 0.149,-0.179 0.145,-0.194C0.14,-0.209 0.138,-0.225 0.138,-0.241C0.138,-0.258 0.14,-0.274 0.145,-0.289C0.149,-0.304 0.156,-0.317 0.164,-0.33C0.181,-0.355 0.207,-0.372 0.237,-0.381C0.252,-0.386 0.268,-0.388 0.285,-0.388C0.302,-0.388 0.318,-0.386 0.333,-0.382C0.337,-0.381 0.34,-0.379 0.344,-0.378C0.348,-0.377 0.351,-0.375 0.355,-0.374C0.358,-0.372 0.361,-0.37 0.365,-0.368C0.368,-0.366 0.371,-0.364 0.374,-0.362C0.377,-0.36 0.38,-0.358 0.383,-0.355C0.386,-0.353 0.389,-0.35 0.391,-0.348C0.397,-0.342 0.401,-0.337 0.406,-0.331L0.501,-0.401C0.492,-0.412 0.483,-0.423 0.472,-0.432C0.47,-0.435 0.467,-0.437 0.465,-0.439C0.462,-0.442 0.459,-0.444 0.456,-0.446C0.451,-0.45 0.445,-0.455 0.439,-0.458C0.434,-0.462 0.428,-0.466 0.421,-0.469C0.415,-0.473 0.409,-0.476 0.403,-0.479C0.39,-0.484 0.377,-0.489 0.364,-0.493C0.338,-0.5 0.311,-0.503 0.284,-0.503C0.258,-0.503 0.231,-0.499 0.205,-0.491C0.178,-0.483 0.153,-0.471 0.13,-0.455C0.119,-0.447 0.108,-0.438 0.098,-0.428C0.088,-0.418 0.079,-0.407 0.071,-0.396C0.055,-0.373 0.043,-0.348 0.035,-0.321C0.027,-0.295 0.023,-0.268 0.023,-0.241C0.023,-0.215 0.026,-0.187 0.034,-0.161C0.042,-0.135 0.054,-0.109 0.07,-0.086C0.078,-0.075 0.088,-0.064 0.097,-0.054C0.107,-0.044 0.118,-0.035 0.13,-0.027C0.153,-0.011 0.178,0.001 0.204,0.009C0.231,0.017 0.258,0.021 0.284,0.021C0.311,0.022 0.338,0.018 0.364,0.011C0.391,0.004 0.417,-0.008 0.44,-0.023C0.463,-0.039 0.484,-0.059 0.501,-0.082L0.406,-0.152C0.397,-0.14 0.386,-0.129 0.374,-0.121L0.374,-0.121Z" style="fill:white;fill-rule:nonzero;"/>
        </g>
        <g transform="matrix(361.021009,0,0,361.021009,1317.263563,353)">
            <path d="M0.318,-0.504C0.249,-0.504 0.198,-0.468 0.162,-0.421L0.162,-0.709L0.044,-0.709L0.044,0L0.162,0L0.162,-0.244C0.162,-0.32 0.228,-0.385 0.302,-0.385C0.361,-0.385 0.399,-0.349 0.399,-0.292L0.399,0L0.518,0L0.518,-0.299C0.518,-0.416 0.441,-0.504 0.318,-0.504Z" style="fill:white;fill-rule:nonzero;"/>
        </g>
        <g transform="matrix(361.021009,0,0,361.021009,1517.991244,353)">
            <path d="M0.41,-0.474C0.361,-0.5 0.306,-0.504 0.278,-0.504C0.218,-0.504 0.166,-0.49 0.127,-0.464C0.082,-0.434 0.057,-0.388 0.057,-0.334L0.175,-0.334C0.175,-0.383 0.254,-0.389 0.278,-0.389C0.353,-0.389 0.373,-0.364 0.373,-0.348C0.373,-0.339 0.366,-0.332 0.345,-0.327C0.322,-0.322 0.294,-0.319 0.264,-0.317C0.214,-0.312 0.162,-0.307 0.119,-0.289C0.09,-0.277 0.067,-0.26 0.051,-0.238C0.032,-0.213 0.023,-0.183 0.023,-0.148C0.023,-0.041 0.117,0.02 0.207,0.02C0.291,0.02 0.342,-0.001 0.373,-0.033L0.373,-0L0.492,-0L0.492,-0.343C0.492,-0.399 0.463,-0.446 0.41,-0.474ZM0.373,-0.198C0.373,-0.153 0.355,-0.135 0.341,-0.125C0.318,-0.107 0.28,-0.098 0.232,-0.098C0.21,-0.098 0.141,-0.102 0.141,-0.146C0.141,-0.189 0.234,-0.195 0.275,-0.199C0.308,-0.202 0.342,-0.205 0.373,-0.212L0.373,-0.198Z" style="fill:white;fill-rule:nonzero;"/>
        </g>
        <g transform="matrix(361.021009,0,0,361.021009,1710.054421,353)">
            <path d="M0.34,-0.113C0.332,-0.108 0.323,-0.105 0.314,-0.102C0.304,-0.099 0.294,-0.096 0.283,-0.094C0.278,-0.093 0.273,-0.093 0.267,-0.092C0.262,-0.091 0.257,-0.091 0.252,-0.091C0.232,-0.091 0.218,-0.092 0.211,-0.099C0.203,-0.106 0.199,-0.121 0.199,-0.157L0.199,-0.364L0.333,-0.364L0.333,-0.482L0.199,-0.482L0.199,-0.595L0.08,-0.595L0.08,-0.482L0.014,-0.482L0.014,-0.364L0.08,-0.364L0.08,-0.155C0.08,-0.14 0.081,-0.124 0.085,-0.106C0.086,-0.098 0.088,-0.089 0.091,-0.08C0.094,-0.071 0.098,-0.061 0.103,-0.052C0.108,-0.043 0.115,-0.033 0.123,-0.025C0.13,-0.016 0.14,-0.009 0.149,-0.003C0.159,0.003 0.169,0.008 0.179,0.011C0.188,0.014 0.198,0.016 0.207,0.018C0.216,0.019 0.224,0.02 0.233,0.02C0.237,0.021 0.251,0.021 0.251,0.021C0.253,0.02 0.256,0.02 0.258,0.02C0.266,0.02 0.274,0.019 0.281,0.018C0.289,0.017 0.297,0.015 0.304,0.014C0.319,0.011 0.334,0.007 0.349,0.002C0.363,-0.004 0.378,-0.01 0.394,-0.019L0.34,-0.113Z" style="fill:white;fill-rule:nonzero;"/>
        </g>
    </g>
    <g transform="matrix(0,3.406032,-3.427359,0,1140.136026,-1508.05222)">
        <g transform="matrix(111.850538,0,0,111.850538,541,91.313217)">
            <path d="M0.335,-0.511C0.321,-0.558 0.301,-0.599 0.275,-0.633C0.218,-0.705 0.136,-0.743 0.036,-0.743L0.036,-0.614C0.2,-0.614 0.224,-0.457 0.224,-0.364C0.224,-0.271 0.2,-0.114 0.036,-0.114L0.036,0.015C0.136,0.015 0.218,-0.023 0.275,-0.095C0.301,-0.129 0.321,-0.17 0.335,-0.217C0.347,-0.261 0.354,-0.31 0.354,-0.364C0.354,-0.417 0.347,-0.467 0.335,-0.511Z" style="fill:white;fill-rule:nonzero;"/>
        </g>
    </g>
</svg>
